<?xml version="1.0" encoding="UTF-8"?>
<svg id="uuid-dd512f09-ca20-417a-9c0c-e4068d0ef546" xmlns="http://www.w3.org/2000/svg" xmlns:xlink="http://www.w3.org/1999/xlink" version="1.1" viewBox="0 0 199.2 38.7">
  <!-- Generator: Adobe Illustrator 29.4.0, SVG Export Plug-In . SVG Version: 2.1.0 Build 152)  -->
  <defs>
    <style>
      .st0 {
        fill: none;
      }

      .st1 {
        fill: #fff;
      }

      .st2 {
        fill: url(#Degradado_sin_nombre);
      }

      .st3 {
        fill: url(#Degradado_sin_nombre_7);
      }

      .st4 {
        fill: url(#Degradado_sin_nombre_8);
      }
    </style>
    <clipPath id="clippath">
      <rect class="st0" x="-488.9" y="-503" width="1440" height="462.5"/>
    </clipPath>
    <radialGradient id="Degradado_sin_nombre" data-name="Degradado sin nombre" cx="64.8" cy="40.3" fx="64.8" fy="40.3" r="30.5" gradientTransform="translate(0 39.2) scale(1 -1)" gradientUnits="userSpaceOnUse">
      <stop offset=".2" stop-color="#b5ea1d"/>
      <stop offset="1" stop-color="#c1d11e"/>
    </radialGradient>
    <radialGradient id="Degradado_sin_nombre_7" data-name="Degradado sin nombre 7" cx="24.2" cy="46" fx="24.2" fy="46" r="35.9" gradientTransform="translate(0 39.2) scale(1 -1)" gradientUnits="userSpaceOnUse">
      <stop offset=".2" stop-color="#b5ea1d"/>
      <stop offset="1" stop-color="#c1d11e"/>
    </radialGradient>
    <radialGradient id="Degradado_sin_nombre_8" data-name="Degradado sin nombre 8" cx="24.2" cy="46" fx="24.2" fy="46" r="35.9" gradientTransform="translate(0 39.2) scale(1 -1)" gradientUnits="userSpaceOnUse">
      <stop offset=".2" stop-color="#b5ea1d"/>
      <stop offset="1" stop-color="#c1d11e"/>
    </radialGradient>
  </defs>
  <path class="st2" d="M73.7,13.1h-8.7v2.4c0,1.3,1.1,2.4,2.4,2.4h3.8v3.5c-1.8,2.1-4.2,3.2-7,3.2s-4.7-.9-6.5-2.7c-1.8-1.8-2.7-3.9-2.7-6.4s.9-4.6,2.7-6.4c1.8-1.8,3.9-2.7,6.5-2.7s2.9.4,4.3,1.1c.8.4,1.4.9,2.1,1.5,0,0,0,0,.1.1l.3.2c.7.6,1.8.7,2.6.3h0l.4-.3s0,0,0,0l2.1-1.4c-1.5-2-3.3-3.6-5.4-4.7s-4.3-1.7-6.5-1.7c-3.9,0-7.2,1.4-10,4.1-2.7,2.7-4.1,6-4.1,9.8s1.4,7.2,4.1,9.9c2.8,2.7,6.1,4.1,10,4.1s2.3-.1,3.5-.4c1.1-.3,2.2-.7,3.2-1.2,1-.6,2-1.2,2.8-2,.8-.7,1.5-1.6,2.2-2.5,0,0,.2-.6.2-.6v-7.2c0-1.3-1.1-2.4-2.4-2.4h0Z"/>
  <g>
    <path class="st1" d="M130.1,28.6V8.3c0-3.3,2.7-6,6-6h6c2.9,0,5.4.5,7.6,1.6s3.9,2.6,5.1,4.6c1.2,2,1.8,4.3,1.8,6.9s-.6,5-1.8,6.9c-1.2,2-2.9,3.5-5.1,4.6s-4.7,1.6-7.6,1.6h-12,0ZM136.2,23.7h5.5c1.8,0,3.3-.3,4.6-1,1.3-.7,2.3-1.6,3-2.9.7-1.2,1.1-2.7,1.1-4.3s-.4-3.1-1.1-4.4c-.7-1.2-1.7-2.2-3-2.8s-2.8-1-4.6-1h-5.5v16.4h0Z"/>
    <path class="st1" d="M178.3,4.9c0-1.3-1.1-2.4-2.4-2.4h-16.8v24.3c0,1.3,1.1,2.4,2.4,2.4h16.8v-2.2h0c0,0,0-.1,0-.2,0-1.3-1.1-2.4-2.4-2.4h-11.9v-6.1h11.2v-2.4c0-1.3-1.1-2.4-2.4-2.4h-8.8v-6.1h14.3v-2.4h0Z"/>
    <path class="st1" d="M124.5,28.9h3.7l-11.8-26.3h-3.4c-1.6,0-3.1,1-3.7,2.4l-8.1,18.2c-1.2,2.7.8,5.7,3.7,5.7h0l2.3-5.6h12.2l1.3,3.1c.6,1.5,2.1,2.5,3.8,2.5h0ZM109.2,18.6l4.2-10,4.2,10h-8.3Z"/>
  </g>
  <path class="st1" d="M79.6,23.6V7.2c0-2.7,2.2-5,5-5h6.4c2.4,0,4.4.4,6.1,1.2s3,1.9,3.9,3.3c.9,1.4,1.4,3.1,1.4,5.1s-.5,3.7-1.4,5.1-2.2,2.5-3.9,3.2c-1.7.7-3.7,1.1-6.1,1.1h-8l2.8-2.6v10h-1.2c-2.7,0-5-2.2-5-5h0ZM85.7,19.2l-2.8-2.9h7.7c1.8,0,3.3-.4,4.2-1.2s1.4-1.9,1.4-3.4-.5-2.6-1.4-3.4-2.4-1.2-4.2-1.2h-7.7l2.8-2.9v14.9h0Z"/>
  <path class="st1" d="M196.8,24.3h-11.9V5c0-1.4-1.1-2.5-2.5-2.5h-2.3v24.3c0,1.3,1.1,2.4,2.4,2.4h16.7v-2.2h0c0,0,0-.1,0-.2,0-1.3-1.1-2.4-2.4-2.4h0Z"/>
  <path class="st1" d="M15.3,23.7l-1.4-.5c-4.8-1.7-8-6.3-8.1-11.3,0-3.9,1.8-7.6,5-9.9,1-.6,2-1,3.1-1.3L15.7,0s-3.1-.4-6.7,1.3C3.6,4.4,0,10.2,0,16.8c0,.3,0,.6,0,.9H0c0,.5,0,1,.1,1.6,0,.6.2,1.2.3,1.9h0c.1.6.3,1.3.6,2h0c0,0,0,.1.1.2,1,2.7,2.9,5.8,6.7,8.6,0,0,.2.1.3.2h0c.2.2.5.4.7.5,1.1.6,2.3,1.2,3.6,1.8l2.5.9-1.3-2.5c-.7-1.3-1-2.9-.7-4.5h0c.2-1.3.7-2.4,1.5-3.4l.9-1.2h0ZM10.7,31.2c-.4-.3-.9-.5-.9-.5-4.8-3.1-7.6-8.3-7.7-13.9,0-1.5.2-3,.6-4.5.3-1,.6-1.9,1-2.9-.1.8-.2,1.7-.2,2.5,0,5.4,3.3,10.5,8.2,12.8-.6,1-1,2.1-1.1,3.3-.2,1.1-.2,2.2,0,3.2Z"/>
  <path class="st3" d="M28.1,14.5c-2.6-2.5-4.7-2.4-7.9-3.2-4.4-1.2-6.5-4.2-6.1-8.1-.7.2-1.4.5-2,.9-2.5,1.8-3.9,4.8-3.9,7.8,0,1.8.5,3.5,1.4,5,.3.3.5.7.8,1.1,1.1,1.3,2.5,2.4,4.2,3l4.7,1.7-3.1,3.9c-.5.6-.8,1.3-1,2.1v.2s0,0,0,0c.1.1.2.2.4.3,7.4,5.8,20-7.5,12.4-14.6h0Z"/>
  <path class="st4" d="M30.4,4.7C26.9,1.4,21.8-.4,17,0c-.3.6-.5,1.2-.6,1.8v.6c-.8,3.3.4,5.8,4.4,6.9,2.8.7,4.6.8,7.1,2.4,11.7,7.9-2.1,25.2-12.3,19.5,0,.1,0,.2.1.3l1.9,3.8c15.9.6,24.7-19.4,12.7-30.6h0Z"/>
  <g>
    <path class="st1" d="M54.7,36.7h-1.3v2h-1v-6.4h2.3c1.4,0,2.2.7,2.2,2.1s-.2,1.3-.5,1.7c-.4.4-.9.6-1.6.6ZM53.4,35.8h1.3c.7,0,1.1-.5,1.1-1.3s0-.8-.3-1-.5-.3-.8-.3h-1.3v2.6Z"/>
    <path class="st1" d="M61.5,38.6h-3.6v-6.4h1v5.4h2.5s0,.9,0,.9Z"/>
    <path class="st1" d="M61.8,38.6l1.6-6.4h2.1l1.6,6.4h-1l-.3-1.4h-2.4l-.3,1.4h-1ZM64.1,33.2l-.8,3.2h2l-.8-3.2h-.5Z"/>
    <path class="st1" d="M66.9,33.2v-.9h4.6v.9h-1.8v5.4h-1v-5.4h-1.8Z"/>
    <path class="st1" d="M71.4,38.6l1.6-6.4h2.1l1.6,6.4h-1l-.3-1.4h-2.4l-.3,1.4h-1ZM73.8,33.2l-.8,3.2h2l-.8-3.2h-.5Z"/>
    <path class="st1" d="M77.5,38.6v-6.4h3.9v.9h-2.9v2.1h2.4v.9h-2.4v2.4h-1Z"/>
    <path class="st1" d="M86.7,38c-.4.5-1.1.8-2,.8s-1.6-.3-2-.8c-.4-.5-.6-1.3-.6-2.5s.2-2,.6-2.5,1.1-.8,2-.8,1.6.3,2,.8.6,1.4.6,2.5-.2,2-.6,2.5ZM83.5,37.3c.2.4.6.5,1.2.5s1-.2,1.2-.5.3-1,.3-1.8-.1-1.5-.3-1.8-.6-.6-1.2-.6-1,.2-1.2.6c-.2.4-.3,1-.3,1.8s.1,1.4.3,1.8h0Z"/>
    <path class="st1" d="M89.5,36.4v2.3h-1v-6.4h2.4c1.4,0,2.2.7,2.2,2s-.3,1.5-1,1.8l1.1,2.5h-1.1l-.9-2.3h-1.5ZM92,34.3c0-.8-.4-1.1-1.1-1.1h-1.4v2.3h1.4c.4,0,.6-.1.8-.3s.3-.5.3-.9Z"/>
    <path class="st1" d="M94.2,38.6v-6.4h1.8l1.4,5,1.4-5h1.8v6.4h-1v-5.2h-.1l-1.5,5h-1.1l-1.5-5h-.1v5.2h-1Z"/>
    <path class="st1" d="M101.6,38.6l1.6-6.4h2.1l1.6,6.4h-1l-.3-1.4h-2.4l-.3,1.4h-1ZM103.9,33.2l-.8,3.2h2l-.8-3.2h-.5Z"/>
    <path class="st1" d="M111.9,38.6h-2.2v-6.4h2.2c1,0,1.7.2,2,.7.4.5.5,1.3.5,2.3s0,1-.1,1.4c0,.4-.2.7-.4,1-.3.6-1,.9-2.1.9h0ZM113.4,35.4c0-.8,0-1.3-.3-1.7s-.6-.5-1.2-.5h-1.2v4.5h1.2c.6,0,1-.2,1.2-.7,0-.2.2-.5.2-.7s0-.6,0-1h0Z"/>
    <path class="st1" d="M115.7,38.6v-6.4h4v.9h-3v1.8h2.4v.9h-2.4v1.9h3v.9h-4Z"/>
    <path class="st1" d="M125.4,36.2v-.9h1.8v3.2c-.2,0-.5,0-1,.1-.5,0-.9,0-1.1,0-1,0-1.6-.3-2-.8s-.6-1.4-.6-2.5.2-2,.6-2.5c.4-.5,1-.8,1.9-.8s1.2,0,1.8.2h.3c0,0,0,.9,0,.9-.8,0-1.4-.2-2-.2s-1,.2-1.2.5-.3,1-.3,1.9,0,1.5.3,1.9.6.5,1.3.5.8,0,1,0v-1.5h-.8,0Z"/>
    <path class="st1" d="M128.5,38.6v-6.4h4v.9h-3v1.8h2.4v.9h-2.4v1.9h3v.9h-4Z"/>
    <path class="st1" d="M135.5,33.1c-.8,0-1.2.3-1.2.8s0,.5.3.6.6.3,1.2.5c.6.2,1.1.4,1.3.6s.4.6.4,1.2-.2,1.2-.6,1.5-.9.5-1.6.5-1.1,0-1.7-.2h-.3c0,0,.1-.9.1-.9.8.1,1.5.2,1.9.2.8,0,1.1-.3,1.1-1s0-.5-.3-.6-.6-.3-1.2-.4-1.1-.4-1.4-.6c-.3-.3-.4-.7-.4-1.3s.2-1,.6-1.3.9-.4,1.6-.4,1,0,1.7.2h.3c0,0,0,.9,0,.9-.9,0-1.5-.2-1.8-.2h0Z"/>
    <path class="st1" d="M138.1,33.2v-.9h4.6v.9h-1.8v5.4h-1v-5.4h-1.8Z"/>
    <path class="st1" d="M143.6,38.6v-6.4h1v6.4h-1Z"/>
    <path class="st1" d="M150.4,38c-.4.5-1.1.8-2,.8s-1.6-.3-2-.8c-.4-.5-.6-1.3-.6-2.5s.2-2,.6-2.5c.4-.5,1.1-.8,2-.8s1.6.3,2,.8.6,1.4.6,2.5-.2,2-.6,2.5ZM147.2,37.3c.2.4.6.5,1.2.5s1-.2,1.2-.5c.2-.4.3-1,.3-1.8s-.1-1.5-.3-1.8-.6-.6-1.2-.6-1,.2-1.2.6c-.2.4-.3,1-.3,1.8s.1,1.4.3,1.8h0ZM147,30.9l2.2-1,.3.9-2.2.8-.3-.7h0Z"/>
    <path class="st1" d="M152.1,38.6v-6.4h1.8l1.9,5.5h.1v-5.5h1v6.4h-1.8l-2-5.5h-.1v5.5h-1Z"/>
    <path class="st1" d="M162.7,38.6h-2.2v-6.4h2.2c1,0,1.6.2,2,.7.4.5.5,1.3.5,2.3s0,1-.1,1.4c0,.4-.2.7-.4,1-.4.6-1,.9-2.1.9h0ZM164.2,35.4c0-.8-.1-1.3-.3-1.7s-.6-.5-1.2-.5h-1.2v4.5h1.2c.6,0,1-.2,1.2-.7.1-.2.2-.5.2-.7s0-.6,0-1h0Z"/>
    <path class="st1" d="M166.5,38.6v-6.4h4v.9h-3v1.8h2.4v.9h-2.4v1.9h3v.9h-4Z"/>
    <path class="st1" d="M176,36.7h-1.3v2h-1v-6.4h2.3c1.4,0,2.2.7,2.2,2.1s-.2,1.3-.5,1.7c-.4.4-.9.6-1.6.6h0ZM174.7,35.8h1.3c.7,0,1.1-.5,1.1-1.3s0-.8-.3-1c-.2-.2-.5-.3-.8-.3h-1.3v2.6Z"/>
    <path class="st1" d="M178.4,38.6l1.6-6.4h2.1l1.6,6.4h-1l-.3-1.4h-2.4l-.3,1.4h-1ZM180.7,33.2l-.8,3.2h2l-.8-3.2h-.5Z"/>
    <path class="st1" d="M186.7,38.6h-2.2v-6.4h2.2c1,0,1.6.2,2,.7.4.5.5,1.3.5,2.3s0,1-.1,1.4c0,.4-.2.7-.4,1-.4.6-1,.9-2.1.9h0ZM188.2,35.4c0-.8-.1-1.3-.3-1.7s-.6-.5-1.2-.5h-1.2v4.5h1.2c.6,0,1-.2,1.2-.7.1-.2.2-.5.2-.7s0-.6,0-1h0Z"/>
    <path class="st1" d="M190.4,38.6v-6.4h4v.9h-3v1.8h2.4v.9h-2.4v1.9h3v.9h-4Z"/>
    <path class="st1" d="M199.1,38.6h-3.6v-6.4h1v5.4h2.5v.9Z"/>
  </g>
</svg>