<?xml version="1.0" encoding="UTF-8"?>
<svg id="uuid-279a5260-163c-4686-a661-43a0889e75fa" data-name="Capa 1" xmlns="http://www.w3.org/2000/svg" xmlns:xlink="http://www.w3.org/1999/xlink" viewBox="0 0 96.56 96.56">
  <defs>
    <clipPath id="uuid-1228a701-7448-4c7d-bdcb-f89dbcf34d0a">
      <rect x="-1028.86" y="-486.98" width="1440" height="462.49" fill="none"/>
    </clipPath>
  </defs>
  <g clip-path="url(#uuid-1228a701-7448-4c7d-bdcb-f89dbcf34d0a)">
    <image width="1366" height="768" transform="translate(-1027.22 -587.43) scale(1.05)" xlink:href="../../../../../Proyectos_Django/padelboard2/scoreboard/static/brand/bg-azul.jpg"/>
  </g>
  <circle cx="48.28" cy="48.28" r="48.28" fill="#144371"/>
  <circle cx="13.55" cy="16.94" r="16.94" fill="#b5ea1d"/>
  <path d="M12.36,23.74c-.88,0-1.74-.12-2.59-.35-.85-.23-1.58-.57-2.2-1.02l1.13-2.21c.48.35,1.04.63,1.67.84s1.27.32,1.93.32c.73,0,1.31-.15,1.73-.44.42-.29.63-.69.63-1.2s-.19-.86-.56-1.13c-.37-.28-.97-.41-1.8-.41h-1.31v-1.91l3.49-4,.32,1.04h-6.61v-2.34h8.82v1.89l-3.49,3.98-1.48-.85h.85c1.55,0,2.72.35,3.52,1.04.8.7,1.2,1.58,1.2,2.66,0,.72-.19,1.39-.57,2.02-.38.62-.95,1.12-1.72,1.5-.77.38-1.76.57-2.97.57Z" fill="#1d1d1b"/>
  <g>
    <path d="M74.97,34.97c-.26-2.04-2.62-4.67-4.77-4.67h-2.5v-3.3c0-.56-.38-1.06-.97-1.29-.6-.23-1.24-.09-1.63.36,0,0-.37.48-.37.73v3.5h-31.44v-3.5c0-.25-.36-.73-.37-.73-.39-.44-1.03-.58-1.63-.36-.59.22-.97.73-.97,1.29v3.3h-2.5c-2.12,0-4.75,2.74-4.78,4.98v25.19c.31,2.6,2.29,4.62,4.87,4.93h42.36c2.39-.37,4.19-2.14,4.7-4.64v-.04s0-25.74,0-25.74ZM72,42.35v18.17c0,.89-1.49,2-2.4,2h-19.16v-20.17h21.57ZM72,35.18v4.2h-21.57v-6.11h19.66c.59,0,1.91,1.32,1.91,1.91ZM47.56,42.35v20.17h-19.16c-.91,0-2.4-1.12-2.4-2v-18.17h21.57ZM47.56,33.27v6.11h-21.57v-4.2c0-.59,1.32-1.91,1.91-1.91h19.66Z" fill="#fff"/>
    <path d="M61.26,60.24h.02c2.23,0,4.76-1.38,5.02-4.37.16-1.79.16-5.18,0-6.97-.22-2.6-2.63-4.57-5.38-4.41-2.38.15-4.44,1.99-4.68,4.2-.19,1.7-.16,5.6,0,7.27.27,2.94,2.79,4.27,5.03,4.27ZM63.34,52.75c-.05,1.04-.1,2.12-.04,3.11-.25,1-1.17,1.42-1.9,1.47-.76.05-1.76-.25-2.12-1.25-.3-.81-.27-5.02-.17-6.41.04-.59.29-1.99,1.7-2.21.64-.1,1.32.06,1.82.44.28.21.63.59.69,1.19.13,1.12.07,2.41.01,3.66Z" fill="#fff"/>
    <path d="M36.75,60.28s.04,0,.06,0c2.35-.03,4.82-1.62,5.04-5.12.09-1.45.22-5.97-.41-7.59-.76-1.95-2.85-3.21-5.06-3.07-2.46.15-4.47,2.09-4.68,4.51-.15,1.74-.15,5.03,0,6.77.26,2.97,2.73,4.51,5.05,4.51ZM34.7,48.92c.34-1.1,1.35-1.55,2.24-1.48.78.05,1.76.56,1.92,1.79.16,1.19.18,5.15-.02,6.39-.12.77-.66,1.39-1.43,1.64-.8.26-1.66.06-2.23-.52-.24-.24-.47-.73-.51-1.05-.13-1.12-.07-2.41-.01-3.66.05-1.04.1-2.11.04-3.1Z" fill="#fff"/>
  </g>
</svg>