<?xml version="1.0" encoding="UTF-8"?>
<svg id="uuid-02bc96a2-2c85-4bad-a6e1-c7621c469436" xmlns="http://www.w3.org/2000/svg" version="1.1" viewBox="0 0 99.9 96.6">
  <!-- Generator: Adobe Illustrator 29.4.0, SVG Export Plug-In . SVG Version: 2.1.0 Build 152)  -->
  <defs>
    <style>
      .st0 {
        fill: #1d1d1b;
      }

      .st1 {
        fill: #fff;
      }

      .st2 {
        fill: #144371;
      }

      .st3 {
        fill: #b5ea1d;
      }
    </style>
  </defs>
  <circle class="st2" cx="51.7" cy="48.3" r="48.3"/>
  <g id="uuid-8b299f2f-557b-42e5-b0a3-ab0e77a40043">
    <g>
      <path class="st1" d="M23.6,34c.5-5.3,5.2-9.9,10.5-10.4h35.4c13.9,1.8,13.7,21.6-.3,23.1h-15.7v3.5l9.7,1.3c2,.6,3.4,2.4,3.5,4.5.5,6-.4,12.7,0,18.8,0,1.2-.9,1.6-2,1.7-6.2-.3-12.8.4-18.9,0-1.1,0-2-.4-2.1-1.6-.2-1.9.2-4.1,0-6l-7.5-6.3c-4.4-5.2,3-10.9,7.6-6.5v-9.4h-9.6c-.9,0-3.2-.8-4.1-1.3-3.3-1.7-5.9-5.4-6.3-9.2,0-.6,0-1.7,0-2.3ZM53.5,43.5h15.8c1.2,0,3.3-1.1,4.3-1.9,5.7-4.7,2.9-13.7-4.3-14.6h-35c-7.2.8-10.1,9.9-4.4,14.6.9.8,3.1,1.9,4.3,1.9h9.4v-5.6c0-2.1,2.5-4.1,4.5-4.2,2.4-.2,5.5,1.7,5.5,4.2,0,0,0,5.6,0,5.6ZM63.4,66.7v-10.6c0-.4-.7-1.3-1.2-1.3-3.3-.6-7.1-.6-10.4-1.3-1-.2-1.5-.6-1.6-1.7-.4-4.3.3-9.1,0-13.5-.5-1.9-3.2-1.7-3.3.3v21.1c0,1.2-1,1.8-2.2,1.5-.7-.2-2.8-2.3-3.6-2.9-.9-.7-2.3-.7-2.9.4-.5.9,0,1.5.7,2,2.2,2,4.8,3.9,7.1,5.9h17.4ZM46.9,70v3.3h16.5v-3.3h-16.5Z"/>
      <path class="st1" d="M67.8,30.3c1.5-.3,2.6,1,1.9,2.4l-7.3,7.2c-.6.2-1.2.2-1.7-.2-.4-.2-3.6-3.5-3.8-3.8-.8-1.6,1-3.1,2.5-2.1.4.3,2.1,2.2,2.3,2.2l5.5-5.4c.2-.1.4-.3.6-.4h0Z"/>
    </g>
  </g>
  <circle class="st3" cx="16.9" cy="16.9" r="16.9"/>
  <path class="st0" d="M11.6,23.5v-1.9l4.9-4.6c.4-.4.7-.7.9-.9s.3-.5.4-.8c0-.2,0-.4,0-.7,0-.5-.2-.9-.5-1.1-.3-.3-.8-.4-1.5-.4s-1,.1-1.5.3c-.4.2-.8.5-1.1.9l-2.1-1.4c.5-.7,1.1-1.3,2-1.7.9-.4,1.9-.6,3-.6s1.8.1,2.5.4,1.3.7,1.7,1.3c.4.6.6,1.2.6,2s0,.8-.2,1.2c-.1.4-.3.8-.6,1.3-.3.4-.7.9-1.3,1.5l-4,3.8-.6-1h7.1v2.4h-9.6Z"/>
</svg>